# xmcd CD database file
#
# Track frame offsets:
#	150
#	20397
#	35025
#	61250
#	71611
#	83150
#	104379
#	123285
#	139605
#	155044
#	175549
#	189540
#	214904
#
# Disc length: 3071 seconds
#
# Revision: 0
# Processed by: cddbd v1.5.1PL0 Copyright (c) Steve Scherf et al.
# Submitted via: CDex 1.51
#
DISCID=b10bfd0d
DTITLE=Matt McCabe - Blues and Jazz Piano
DYEAR=2003
DGENRE=Blues
TTITLE0=Cow Cow Boogie
TTITLE1=Maybe Someday
TTITLE2=Goin' Down Slow
TTITLE3=Dog Fingers Boogie
TTITLE4=Dirty Ducklings
TTITLE5=Midnight Hour Blues
TTITLE6=Une Noches con Francis
TTITLE7=I Remember You
TTITLE8=Martina's Tune
TTITLE9=Barbados
TTITLE10=Azure Te
TTITLE11=Nablatnias
TTITLE12=Tremblin' Blues
EXTD=YEAR: 2003
EXTT0=
EXTT1=
EXTT2=
EXTT3=
EXTT4=
EXTT5=
EXTT6=
EXTT7=
EXTT8=
EXTT9=
EXTT10=
EXTT11=
EXTT12=
PLAYORDER=
